# xmcd
#
# Track frame offsets:
#	150
#	16670
#	30500
#	47713
#	64038
#	83095
#	95008
#	111285
#	126293
#	144253
#
# Disc length: 2153 seconds
#
# Revision: 3
# Processed by: cddbd v1.5PL3 Copyright (c) Steve Scherf et al.
# Submitted via: EasyCDDAExtractor 6.2.0.3
#
DISCID=7a08670a
DTITLE=Reba McEntire - Reba
DYEAR=1988
DGENRE=Country
TTITLE0=So, So, So Long
TTITLE1=Sunday Kind Of Love
TTITLE2=New Fool At An Old Game
TTITLE3=You're The One I Dream About
TTITLE4=Silly Me
TTITLE5=Respect
TTITLE6=Do Right By Me
TTITLE7=I Know How He Feels
TTITLE8=Wish I Were Only Lonely
TTITLE9=Everytime You Touch Her
EXTD=
EXTT0=
EXTT1=
EXTT2=
EXTT3=
EXTT4=
EXTT5=
EXTT6=
EXTT7=
EXTT8=
EXTT9=
PLAYORDER=
